HIERARCHY
ROOT RootJoint
{
    OFFSET   0.000000   0.000000   0.000000
    CHANNELS 6 Xposition Yposition Zposition Xrotation Yrotation Zrotation
    JOINT pelvis_lowerback
    {
        OFFSET   0.000000   0.093605   0.000000
        CHANNELS 3 Xrotation Yrotation Zrotation
        JOINT lowerback_torso
        {
            OFFSET   0.000000   0.100000   0.000000
            CHANNELS 3 Xrotation Yrotation Zrotation
            JOINT torso_head
            {
                OFFSET   0.000000   0.282350   0.000000
                CHANNELS 3 Xrotation Yrotation Zrotation
                End Site
                {
                    OFFSET   0.000000   0.192650   0.000000
                }
            }
            JOINT rTorso_Clavicle
            {
                OFFSET  -0.001000   0.157500   0.000000
                CHANNELS 3 Xrotation Yrotation Zrotation
                JOINT rShoulder
                {
                    OFFSET  -0.117647   0.000000   0.000000
                    CHANNELS 3 Xrotation Yrotation Zrotation
                    JOINT rElbow
                    {
                        OFFSET  -0.245000   0.000000   0.000000
                        CHANNELS 3 Xrotation Yrotation Zrotation
                        JOINT rWrist
                        {
                            OFFSET  -0.240000   0.000000   0.000000
                            CHANNELS 3 Xrotation Yrotation Zrotation
                            End Site
                            {
                                OFFSET  -0.116353  -0.002500   0.000000
                            }
                        }
                    }
                }
            }
            JOINT lTorso_Clavicle
            {
                OFFSET   0.001000   0.157500   0.000000
                CHANNELS 3 Xrotation Yrotation Zrotation
                JOINT lShoulder
                {
                    OFFSET   0.117647   0.000000   0.000000
                    CHANNELS 3 Xrotation Yrotation Zrotation
                    JOINT lElbow
                    {
                        OFFSET   0.245000   0.000000   0.000000
                        CHANNELS 3 Xrotation Yrotation Zrotation
                        JOINT lWrist
                        {
                            OFFSET   0.240000   0.000000   0.000000
                            CHANNELS 3 Xrotation Yrotation Zrotation
                            End Site
                            {
                                OFFSET   0.116353  -0.002500   0.000000
                            }
                        }
                    }
                }
            }
        }
    }
    JOINT rHip
    {
        OFFSET  -0.100000  -0.051395   0.000000
        CHANNELS 3 Xrotation Yrotation Zrotation
        JOINT rKnee
        {
            OFFSET   0.000000  -0.410000   0.000000
            CHANNELS 3 Xrotation Yrotation Zrotation
            JOINT rAnkle
            {
                OFFSET   0.000000  -0.390000   0.000000
                CHANNELS 3 Xrotation Yrotation Zrotation
                JOINT rToeJoint
                {
                    OFFSET   0.000000  -0.050000   0.130000
                    CHANNELS 3 Xrotation Yrotation Zrotation
                    End Site
                    {
                        OFFSET  -0.010000   0.002000   0.060000
                    }
                }
            }
        }
    }
    JOINT lHip
    {
        OFFSET   0.100000  -0.051395   0.000000
        CHANNELS 3 Xrotation Yrotation Zrotation
        JOINT lKnee
        {
            OFFSET   0.000000  -0.410000   0.000000
            CHANNELS 3 Xrotation Yrotation Zrotation
            JOINT lAnkle
            {
                OFFSET   0.000000  -0.390000   0.000000
                CHANNELS 3 Xrotation Yrotation Zrotation
                JOINT lToeJoint
                {
                    OFFSET   0.000000  -0.050000   0.130000
                    CHANNELS 3 Xrotation Yrotation Zrotation
                    End Site
                    {
                        OFFSET   0.010000   0.002000   0.060000
                    }
                }
            }
        }
    }
}
MOTION
Frames: 10
Frame Time:   0.008333
 -2.376719   0.925631   3.975860   0.000000   0.000000   0.000000   0.000000   0.000000   0.000000   0.000000   0.000000   0.000000   0.000000   0.000000   0.000000   0.000000   0.000000   0.000000   0.000000   0.000000   0.000000   0.000000   0.000000   0.000000   0.000000   0.000000   0.000000   0.000000   0.000000   0.000000   0.000000   0.000000   0.000000   0.000000   0.000000   0.000000   0.000000   0.000000   0.000000   0.000000   0.000000   0.000000   0.000000   0.000000   0.000000   0.000000   0.000000   0.000000   0.000000   0.000000   0.000000   0.000000   0.000000   0.000000   0.000000   0.000000   0.000000   0.000000   0.000000   0.000000   0.000000   0.000000   0.000000
 -2.376737   0.926104   3.976159  -0.630093   0.089452  -0.115477   0.591848   0.051994   0.120268   0.138351  -0.155505   0.039867  -0.077946   0.145651  -0.001277   0.229765  -0.423638   0.132812   1.027507   0.258351   2.109156   0.049835   2.459412  -0.030124   0.184510  -1.240033  -2.616997   0.307449   0.226300  -0.489918   1.627172  -0.106384  -1.841976   0.043653  -2.145002   0.038861   0.256972   1.063046   2.684553   0.552800  -0.259282   0.012082   0.584637   0.000527  -0.000875  -0.964583  -0.554968  -0.135818  -0.078658  -0.000165   0.000498   0.464405   0.026248   0.276744   0.883960  -0.001230   0.000897  -0.955490   0.238568   0.087710   0.294321  -0.000636   0.000907
 -2.376788   0.926928   3.976503  -1.319858   0.169160  -0.238687   1.126442   0.103679   0.243373   0.318093  -0.315826   0.085922  -0.131130   0.287304   0.007439   0.455556  -0.673175   0.923306   2.017715   0.715697   4.740239   0.116016   4.870577  -0.051731   0.413979  -1.681500  -4.583076   0.611224   0.270971  -1.648638   3.219200  -0.429331  -4.232053   0.102773  -4.249047   0.067769   0.575758   1.448469   4.734964   1.138637  -0.521997  -0.074136   1.242294   0.001608  -0.001798  -1.870091  -1.080563  -0.273896  -0.211162  -0.000536   0.001219   0.995822   0.068992   0.687828   1.860728  -0.003376   0.001818  -1.846138   0.466633   0.175779   0.533981  -0.001282   0.001457
 -2.376858   0.927721   3.976869  -1.986530   0.235148  -0.353370   1.596894   0.147136   0.354766   0.468101  -0.472266   0.126197  -0.190100   0.419793   0.019097   0.665803  -0.782628   2.124461   2.959900   1.314479   7.709826   0.181620   7.159054  -0.065579   0.648026  -1.780590  -5.786502   0.888908   0.178629  -3.205398   4.762909  -0.925513  -6.972875   0.161977  -6.250747   0.087573   0.895986   1.511629   6.009308   1.692353  -0.773885  -0.257714   1.876530   0.002904  -0.002566  -2.715783  -1.570757  -0.411577  -0.337905  -0.000914   0.001724   1.533110   0.119331   1.189799   2.807078  -0.005799   0.002561  -2.676108   0.680143   0.262492   0.753051  -0.001913   0.001799
 -2.376941   0.928207   3.977267  -2.613813   0.286268  -0.458291   2.014232   0.182116   0.453022   0.584097  -0.624389   0.158523  -0.256688   0.543429   0.031183   0.860335  -0.802809   3.564615   3.852503   2.023441  10.905556   0.238775   9.315758  -0.073914   0.879957  -1.714834  -6.412248   1.137663   0.000861  -4.983782   6.256992  -1.569471  -9.942802   0.214008  -8.142170   0.100813   1.212792   1.399335   6.695311   2.202612  -1.014448  -0.522277   2.469624   0.004183  -0.003179  -3.506762  -2.027554  -0.547840  -0.459745  -0.001272   0.002066   2.060624   0.175398   1.759584   3.702060  -0.008146   0.003130  -3.451156   0.879568   0.347341   0.949271  -0.002451   0.001974
 -2.377030   0.928179   3.977709  -3.199346   0.321220  -0.554647   2.387943   0.209267   0.538881   0.672858  -0.772249   0.183173  -0.327338   0.658789   0.042900   1.039591  -0.770252   5.128407   4.693358   2.819482  14.250897   0.284286  11.339792  -0.078398   1.104642  -1.569577  -6.639681   1.356933  -0.225568  -6.867757   7.698496  -2.340962 -13.059814   0.255855  -9.921916   0.109394   1.522028   1.189020   6.976423   2.668994  -1.243683  -0.851056   3.020517   0.005322  -0.003664  -4.246818  -2.453047  -0.681801  -0.576317  -0.001588   0.002281   2.573402   0.236016   2.379688   4.544212  -0.010234   0.003538  -4.175190   1.065642   0.429968   1.124703  -0.002870   0.002024
 -2.377122   0.927485   3.978202  -3.744083   0.338492  -0.643853   2.725144   0.229273   0.613482   0.741177  -0.915942   0.200862  -0.398904   0.766442   0.053974   1.204704  -0.709120   6.738675   5.480184   3.685672  17.694229   0.317620  13.234143  -0.080182   1.318378  -1.392440  -6.604532   1.547734  -0.476152  -8.780826   9.083833  -3.224129 -16.268666   0.286936 -11.591889   0.114664   1.819967   0.927248   6.990902   3.093522  -1.461608  -1.229208   3.531473   0.006257  -0.004043  -4.939238  -2.849244  -0.812738  -0.686918  -0.001849   0.002397   3.069491   0.300198   3.035372   5.335815  -0.011971   0.003798  -4.851555   1.239116   0.510098   1.282063  -0.003167   0.001986
 -2.377073   0.925476   3.978221  -3.860643   0.286830  -0.694970   2.688106   0.265659   0.716123   0.790191  -1.022110   0.147701  -0.639901   0.760978   0.006439   1.439890  -0.625157   7.592475   6.526011   4.622500  21.365991   0.361279  15.630514  -0.095654   1.382250  -1.380844  -5.757999   1.902641  -0.766051  -9.922643  10.505148  -4.201525 -19.621343   0.319655 -13.579341   0.130028   2.013162   0.618346   6.115267   2.990655  -1.959309  -1.624336   3.991889   0.006581  -0.005637  -4.884406  -3.384626  -0.708808  -0.640773  -0.001328   0.001485   3.221184   0.484232   3.554976   5.416268  -0.009893   0.003172  -5.080013   1.469799   0.536050   1.454803  -0.003258   0.002163
 -2.376965   0.922342   3.978002  -3.920870   0.239069  -0.738567   2.684710   0.293849   0.823677   0.815553  -1.121789   0.098097  -0.881223   0.751426  -0.046020   1.640940  -0.489739   8.263843   7.435477   5.601886  24.712787   0.382519  17.902230  -0.106074   1.479804  -1.155427  -4.869241   2.209245  -1.090586 -10.845228  11.770478  -5.222612 -22.644891   0.333345 -15.462166   0.139676   2.226728   0.134249   5.238014   2.834100  -2.442849  -1.985720   4.388080   0.006451  -0.006517  -4.824449  -3.889388  -0.611959  -0.537009  -0.000761   0.000252   3.283626   0.657814   3.994849   5.364779  -0.007744   0.002458  -5.297782   1.685226   0.561072   1.619232  -0.003183   0.002249
 -2.376822   0.918167   3.977692  -3.962704   0.191877  -0.782094   2.708949   0.322448   0.935459   0.842948  -1.212216   0.061469  -1.102946   0.742248  -0.096218   1.806685  -0.326902   8.811628   8.219221   6.586288  27.770688   0.387566  20.036411  -0.111903   1.584909  -0.851937  -4.113390   2.468206  -1.427656 -11.614700  12.892288  -6.252663 -25.382043   0.333638 -17.231378   0.144144   2.438306  -0.402518   4.522432   2.676539  -2.893594  -2.305499   4.744173   0.006087  -0.006912  -4.768433  -4.360477  -0.521068  -0.440334  -0.000366  -0.000618   3.293583   0.818565   4.372185   5.278450  -0.005954   0.001848  -5.503405   1.885660   0.585023   1.765242  -0.002973   0.002226
